<?xml version="1.0" encoding="UTF-8"?>
<svg width="19px" height="22px" viewBox="0 0 19 22" version="1.1" xmlns="http://www.w3.org/2000/svg" xmlns:xlink="http://www.w3.org/1999/xlink">
    <!-- Generator: Sketch 53.1 (72631) - https://sketchapp.com -->
    <title>&gt;&gt;</title>
    <desc>Created with Sketch.</desc>
    <defs>
        <polygon id="path-1" points="0.0123171543 0.0468670213 10.1985524 0.0468670213 10.1985524 21.7661915 0.0123171543 21.7661915"></polygon>
        <polygon id="path-3" points="0.0123171543 0.0468670213 10.1985524 0.0468670213 10.1985524 21.7661915 0.0123171543 21.7661915"></polygon>
    </defs>
    <g id="Page-1" stroke="none" stroke-width="1" fill="none" fill-rule="evenodd">
        <g id="3.-KNAUF-cata" transform="translate(-1709.000000, -556.000000)">
            <g id="Group" transform="translate(1709.000000, 503.000000)">
                <g id="&gt;&gt;" transform="translate(0.000000, 53.000000)">
                    <g id="right-arrow-(2)-copy">
                        <mask id="mask-2" fill="white">
                            <use xlink:href="#path-1"></use>
                        </mask>
                        <g id="Clip-2"></g>
                        <path d="M1.15001164,21.5412766 C1.01842337,21.6910638 0.853989362,21.7661915 0.673543052,21.7661915 C0.492275598,21.7661915 0.328868019,21.6910638 0.197279754,21.5412766 C-0.0656914894,21.2414681 -0.0656914894,20.7548936 0.197279754,20.4550851 L8.57314993,10.9059149 L0.197279754,1.35791489 C-0.0656914894,1.05787234 -0.0656914894,0.570595745 0.197279754,0.271723404 C0.459429854,-0.0280851064 0.886835106,-0.0280851064 1.15001164,0.271723404 L10.001324,10.3629362 C10.2642952,10.6627447 10.2642952,11.1500213 10.001324,11.4491277 L1.15001164,21.5412766 Z" id="Fill-1" stroke="#17222E" fill="#17222E" mask="url(#mask-2)"></path>
                    </g>
                    <g id="right-arrow-(2)-copy-2" transform="translate(8.004630, 0.000000)">
                        <mask id="mask-4" fill="white">
                            <use xlink:href="#path-3"></use>
                        </mask>
                        <g id="Clip-2"></g>
                        <path d="M1.15001164,21.5412766 C1.01842337,21.6910638 0.853989362,21.7661915 0.673543052,21.7661915 C0.492275598,21.7661915 0.328868019,21.6910638 0.197279754,21.5412766 C-0.0656914894,21.2414681 -0.0656914894,20.7548936 0.197279754,20.4550851 L8.57314993,10.9059149 L0.197279754,1.35791489 C-0.0656914894,1.05787234 -0.0656914894,0.570595745 0.197279754,0.271723404 C0.459429854,-0.0280851064 0.886835106,-0.0280851064 1.15001164,0.271723404 L10.001324,10.3629362 C10.2642952,10.6627447 10.2642952,11.1500213 10.001324,11.4491277 L1.15001164,21.5412766 Z" id="Fill-1" stroke="#17222E" fill="#17222E" mask="url(#mask-4)"></path>
                    </g>
                </g>
            </g>
        </g>
    </g>
</svg>